<svg xmlns="http://www.w3.org/2000/svg" width="63.193" height="40.216" viewBox="0 0 63.193 40.216">
  <g id="icons8-bosnia-and-herzegovina_5_" data-name="icons8-bosnia-and-herzegovina (5)" transform="translate(-2 -10)">
    <path id="Path_714" data-name="Path 714" d="M2,10H65.193V50.214H2Z" fill="#3f51b5"/>
    <path id="Path_715" data-name="Path 715" d="M49.214,50.216,9,10H49.214Z" transform="translate(3.053)" fill="#ffeb3b"/>
    <path id="Path_716" data-name="Path 716" d="M7.872,10l.886,1.891,1.986.3L9.309,13.669l.339,2.075-1.775-.981L6.1,15.745l.339-2.075L5,12.193l1.986-.3Zm5.745,5.745.886,1.891,1.986.3-1.436,1.476.339,2.075-1.775-.981-1.775.981.339-2.075-1.436-1.476,1.986-.3Zm5.745,5.745.886,1.891,1.986.3L20.8,25.159l.339,2.075-1.775-.981-1.775.981.339-2.075L16.49,23.683l1.986-.3Zm5.745,5.745.886,1.891,1.986.3L26.543,30.9l.339,2.075L25.107,32l-1.775.981.339-2.075-1.436-1.476,1.986-.3Zm5.745,5.745.886,1.891,1.986.3-1.436,1.476.339,2.075-1.775-.981-1.775.981.339-2.075-1.436-1.476,1.986-.3ZM36.6,38.724l.886,1.891,1.986.3-1.436,1.476.339,2.075L36.6,43.488l-1.775.981.339-2.075-1.436-1.476,1.986-.3Zm5.745,5.745.886,1.891,1.986.3-1.436,1.476.339,2.075-1.775-.981-1.775.981.339-2.075-1.436-1.476,1.986-.3Z" transform="translate(1.309)" fill="#fff"/>
  </g>
</svg>
