<svg xmlns="http://www.w3.org/2000/svg" width="63.197" height="40.216" viewBox="0 0 63.197 40.216">
  <g id="icons8-great-britain" transform="translate(-2 -10)">
    <path id="Path_25" data-name="Path 25" d="M2,10H65.2V50.216H2Z" transform="translate(0 0)" fill="#3f51b5"/>
    <path id="Path_26" data-name="Path 26" d="M2,16.055,31.889,34.324l4.494-7.354L8.618,10H2Z" transform="translate(0 0)" fill="#fff"/>
    <path id="Path_27" data-name="Path 27" d="M56.008,10H50.825L23.061,26.968l4.493,7.355L56.008,16.932Z" transform="translate(9.189 0)" fill="#fff"/>
    <path id="Path_28" data-name="Path 28" d="M27.554,20.271l-4.493,7.354,29.631,18.11h3.316V37.662Z" transform="translate(9.189 4.481)" fill="#fff"/>
    <path id="Path_29" data-name="Path 29" d="M2,38.541v7.194H6.754L36.383,27.626l-4.493-7.355Z" transform="translate(0 4.481)" fill="#fff"/>
    <path id="Path_30" data-name="Path 30" d="M2,20H65.2V31.49H2Z" transform="translate(0 4.363)" fill="#fff"/>
    <path id="Path_31" data-name="Path 31" d="M20,10H31.49V50.216H20Z" transform="translate(7.853 0)" fill="#fff"/>
    <g id="Group_335" data-name="Group 335" transform="translate(2 10)">
      <path id="Path_32" data-name="Path 32" d="M23.858,24.363,2,11v3.367l16.348,9.992ZM62.768,10l-23.5,14.363h5.508L65.2,11.883V10ZM46.643,35.853,65.2,47.193V43.826L52.151,35.853Zm-24.653,0L2,48.07v2.146H4L27.5,35.853ZM2,27.236H65.2v5.745H2Z" transform="translate(-2 -10)" fill="#e53935"/>
      <path id="Path_33" data-name="Path 33" d="M22,10h5.745V50.216H22Z" transform="translate(6.726 -10)" fill="#e53935"/>
    </g>
  </g>
</svg>
